<svg width="37" height="29" viewBox="0 0 37 29" fill="none" xmlns="http://www.w3.org/2000/svg">
<path d="M33.4058 3.22406C35.4678 5.49234 36.7051 7.96683 36.7051 12.091C36.7051 19.3082 31.5499 25.7007 24.3326 29L22.4768 26.3193C29.2816 22.6076 30.7251 17.8648 31.1375 14.7717C30.1064 15.3903 28.663 15.5965 27.2195 15.3903C23.5078 14.9779 20.6209 12.091 20.6209 8.17304C20.6209 6.31717 21.4457 4.46131 22.683 3.01786C24.1264 1.5744 25.7761 0.955781 27.8382 0.955781C30.1064 0.955781 32.1685 1.98681 33.4058 3.22406ZM12.785 3.22406C14.8471 5.49234 16.0843 7.96683 16.0843 12.091C16.0843 19.3082 10.9291 25.7007 3.71188 29L1.85601 26.3193C8.66086 22.6076 10.1043 17.8648 10.5167 14.7717C9.48569 15.3903 8.04224 15.5965 6.59878 15.3903C2.88705 14.9779 0.00014348 12.091 0.000143138 8.17304C0.000142976 6.31718 0.824976 4.46131 2.06222 3.01786C3.29946 1.5744 5.15533 0.955783 7.21741 0.955783C9.48569 0.955782 11.5478 1.98682 12.785 3.22406Z" fill="#E4E4E4"/>
</svg>
