<svg width="12" height="10" viewBox="0 0 12 10" fill="none" xmlns="http://www.w3.org/2000/svg">
    <path d="M8.72922 0H5.29313C5.07566 0 4.8668 0.0865792 4.71293 0.240452L0.24035 4.71221C-0.0801166 5.03268 -0.0801166 5.55215 0.24035 5.87303L3.67644 9.30912C3.99691 9.62959 4.51638 9.62959 4.83685 9.30912L9.30943 4.83736C9.4633 4.68308 9.54988 4.47422 9.54988 4.25634V0.820657C9.54988 0.367244 9.18264 0 8.72922 0ZM7.29307 2.8723C6.95332 2.8723 6.67758 2.59656 6.67758 2.25681C6.67758 1.91705 6.95332 1.64131 7.29307 1.64131C7.63283 1.64131 7.90857 1.91705 7.90857 2.25681C7.90857 2.59656 7.63283 2.8723 7.29307 2.8723Z" fill="white"/>
    <path d="M10.3706 0.820801L10.3702 4.64055C10.3702 4.82971 10.2951 5.01149 10.1609 5.14525L5.61615 9.69005L5.68591 9.75981C6.00637 10.0803 6.52585 10.0803 6.84631 9.75981L10.9504 5.65652C11.1047 5.50265 11.1913 5.29379 11.1913 5.07632V1.64146C11.1913 1.18804 10.824 0.820801 10.3706 0.820801Z" fill="white"/>
</svg>
