<svg width="615" height="700" viewBox="0 0 615 700" fill="none" xmlns="http://www.w3.org/2000/svg">
<circle cx="28.4966" cy="27.5" r="27.5" fill="#764AF1"/>
<path d="M575.455 86L584.186 77.431L561.874 55.1191L584.186 32.9689L575.455 24.3999L544.574 55.1191L575.455 86Z" stroke="white" stroke-width="2" stroke-miterlimit="10"/>
<path opacity="0.9375" d="M544.253 55.1191L566.404 32.9689L557.834 24.3999L526.954 55.1191L557.834 86L566.404 77.431L544.253 55.1191Z" stroke="white" stroke-width="2" stroke-miterlimit="10"/>
<path opacity="0.875" d="M526.468 55.1191L548.78 32.9689L540.049 24.3999L509.168 55.1191L540.049 86L548.78 77.431L526.468 55.1191Z" stroke="white" stroke-width="2" stroke-miterlimit="10"/>
<path opacity="0.8125" d="M508.68 55.1191L530.992 32.9689L522.261 24.3999L491.542 55.1191L522.261 86L530.992 77.431L508.68 55.1191Z" stroke="white" stroke-width="2" stroke-miterlimit="10"/>
<path opacity="0.75" d="M491.057 55.1191L513.207 32.9689L504.638 24.3999L473.757 55.1191L504.638 86L513.207 77.431L491.057 55.1191Z" stroke="white" stroke-width="2" stroke-miterlimit="10"/>
<path opacity="0.6875" d="M473.278 55.1191L495.59 32.9689L486.859 24.3999L455.979 55.1191L486.859 86L495.59 77.431L473.278 55.1191Z" stroke="white" stroke-width="2" stroke-miterlimit="10"/>
<path opacity="0.625" d="M455.651 55.1191L477.801 32.9689L469.232 24.3999L438.352 55.1191L469.232 86L477.801 77.431L455.651 55.1191Z" stroke="white" stroke-width="2" stroke-miterlimit="10"/>
<path opacity="0.5625" d="M437.867 55.1191L460.017 32.9689L451.448 24.3999L420.567 55.1191L451.448 86L460.017 77.431L437.867 55.1191Z" stroke="white" stroke-width="2" stroke-miterlimit="10"/>
<path opacity="0.5" d="M420.084 55.1191L442.396 32.9689L433.665 24.3999L402.946 55.1191L433.665 86L442.396 77.431L420.084 55.1191Z" stroke="white" stroke-width="2" stroke-miterlimit="10"/>
<path opacity="0.4375" d="M402.461 55.1191L424.611 32.9689L416.042 24.3999L385.161 55.1191L416.042 86L424.611 77.431L402.461 55.1191Z" stroke="white" stroke-width="2" stroke-miterlimit="10"/>
<path opacity="0.375" d="M384.677 55.1191L406.989 32.9689L398.258 24.3999L367.377 55.1191L398.258 86L406.989 77.431L384.677 55.1191Z" stroke="white" stroke-width="2" stroke-miterlimit="10"/>
<path opacity="0.3125" d="M367.057 55.1191L389.207 32.9689L380.638 24.3999L349.757 55.1191L380.638 86L389.207 77.431L367.057 55.1191Z" stroke="white" stroke-width="2" stroke-miterlimit="10"/>
<path opacity="0.25" d="M349.271 55.1191L371.422 32.9689L362.853 24.3999L331.972 55.1191L362.853 86L371.422 77.431L349.271 55.1191Z" stroke="white" stroke-width="2" stroke-miterlimit="10"/>
<path opacity="0.1875" d="M331.487 55.1191L353.799 32.9689L345.068 24.3999L314.187 55.1191L345.068 86L353.799 77.431L331.487 55.1191Z" stroke="white" stroke-width="2" stroke-miterlimit="10"/>
<path opacity="0.125" d="M313.86 55.1191L336.01 32.9689L327.441 24.3999L296.56 55.1191L327.441 86L336.01 77.431L313.86 55.1191Z" stroke="white" stroke-width="2" stroke-miterlimit="10"/>
<path opacity="0.0625" d="M296.082 55.1191L318.393 32.9689L309.663 24.3999L278.782 55.1191L309.663 86L318.393 77.431L296.082 55.1191Z" stroke="white" stroke-width="2" stroke-miterlimit="10"/>
<path d="M495.876 557.948C523.218 557.948 545.383 580.139 545.383 607.513L545.383 590.542L545.383 584.405L545.383 532.389C531.18 522.996 514.173 517.532 495.876 517.532C446.238 517.532 405.982 557.835 405.982 607.531L446.369 607.531C446.369 580.139 468.534 557.948 495.876 557.948Z" fill="#764AF1"/>
<path d="M510.695 607.512L545.364 607.512C545.364 580.138 523.198 557.947 495.875 557.947C468.552 557.947 446.368 580.138 446.368 607.512L469.075 607.512L469.075 565.843L510.695 607.512Z" fill="url(#paint0_linear_29347_2459)"/>
<path d="M510.695 607.512L545.364 607.512C545.364 580.138 523.198 557.947 495.875 557.947C468.552 557.947 446.368 580.138 446.368 607.512L469.075 607.512L469.075 565.843L510.695 607.512Z" fill="#9772FB"/>
<path d="M545.364 607.512L545.364 642.221L577.79 674.684L545.364 674.684L545.364 700L615 700L615 607.512L585.77 607.512L545.364 607.512Z" fill="#764AF1"/>
<path d="M545.364 642.221L510.695 607.512L469.075 607.512L469.075 640.35C487.484 643.306 502.323 656.946 507.032 674.703L545.364 674.703L545.364 642.221Z" fill="#F2F2F2"/>
<path d="M469.075 565.843L469.075 607.512L510.696 607.512L469.075 565.843Z" fill="url(#paint1_linear_29347_2459)"/>
<path d="M469.075 565.843L469.075 607.512L510.696 607.512L469.075 565.843Z" fill="url(#paint2_linear_29347_2459)"/>
<path d="M469.075 565.843L469.075 607.512L510.696 607.512L469.075 565.843Z" fill="#F2F2F2"/>
<path d="M545.363 642.221L545.363 674.684L577.789 674.684L545.363 642.221Z" fill="url(#paint3_linear_29347_2459)"/>
<path d="M545.363 642.221L545.363 674.684L577.789 674.684L545.363 642.221Z" fill="#FFC44E"/>
<path d="M469.075 640.331C466.626 639.938 464.122 639.732 461.58 639.732L435.901 639.732L435.901 699.981L508.602 699.981L508.602 686.828C508.602 682.636 508.06 678.557 507.013 674.684L469.056 674.684L469.056 640.331L469.075 640.331Z" fill="#F32424"/>
<path d="M469.077 640.331L469.077 674.684L507.036 674.684C502.307 656.928 487.468 643.287 469.077 640.331Z" fill="url(#paint4_linear_29347_2459)"/>
<path d="M469.077 640.331L469.077 674.684L507.036 674.684C502.307 656.928 487.468 643.287 469.077 640.331Z" fill="#FFC44E"/>
<path d="M575.783 607.561L614.969 607.561L614.969 584.447L597.553 584.447L597.553 561.332L580.137 561.332L580.137 538.236L562.721 538.236L562.721 515.122L545.306 515.122L545.306 532.458C563.666 548.559 575.783 576.181 575.783 607.561Z" fill="#F32424"/>
<path d="M545.363 590.523L545.363 607.494L585.77 607.494C585.77 576.097 569.715 548.461 545.382 532.351L545.382 584.367L545.382 590.523L545.363 590.523Z" fill="url(#paint5_linear_29347_2459)"/>
<path d="M545.363 590.523L545.363 607.494L585.77 607.494C585.77 576.097 569.715 548.461 545.382 532.351L545.382 584.367L545.382 590.523L545.363 590.523Z" fill="url(#paint6_linear_29347_2459)"/>
<path d="M615 699.981L615 674.684L577.808 674.684L577.808 699.981L615 699.981Z" fill="#FFC44E"/>
<path d="M615 642.239L615 607.512L545.383 607.512L545.383 642.239L615 642.239Z" fill="#9772FB"/>
<defs>
<linearGradient id="paint0_linear_29347_2459" x1="495.866" y1="517.507" x2="495.866" y2="607.507" gradientUnits="userSpaceOnUse">
<stop stop-color="#F8B8F8"/>
<stop offset="0.1904" stop-color="#F8B2F8"/>
<stop offset="1" stop-color="#F89AF8"/>
</linearGradient>
<linearGradient id="paint1_linear_29347_2459" x1="489.876" y1="517.507" x2="489.876" y2="607.507" gradientUnits="userSpaceOnUse">
<stop stop-color="#F8B8F8"/>
<stop offset="0.1904" stop-color="#F8B2F8"/>
<stop offset="1" stop-color="#F89AF8"/>
</linearGradient>
<linearGradient id="paint2_linear_29347_2459" x1="489.876" y1="557.948" x2="489.876" y2="607.507" gradientUnits="userSpaceOnUse">
<stop stop-color="#F84818"/>
<stop offset="0.0549913" stop-color="#F84B24"/>
<stop offset="0.3877" stop-color="#FB5966"/>
<stop offset="0.6673" stop-color="#FD6396"/>
<stop offset="0.8798" stop-color="#FF6AB4"/>
<stop offset="1" stop-color="#FF6CBF"/>
</linearGradient>
<linearGradient id="paint3_linear_29347_2459" x1="561.58" y1="607.507" x2="561.58" y2="699.992" gradientUnits="userSpaceOnUse">
<stop stop-color="#69FFFF"/>
<stop offset="0.974" stop-color="#2DCCF7"/>
<stop offset="1" stop-color="#2BCBF7"/>
</linearGradient>
<linearGradient id="paint4_linear_29347_2459" x1="488.049" y1="565.838" x2="488.049" y2="674.693" gradientUnits="userSpaceOnUse">
<stop stop-color="#69FFFF"/>
<stop offset="0.974" stop-color="#2DCCF7"/>
<stop offset="1" stop-color="#2BCBF7"/>
</linearGradient>
<linearGradient id="paint5_linear_29347_2459" x1="565.563" y1="517.508" x2="565.563" y2="607.507" gradientUnits="userSpaceOnUse">
<stop stop-color="#F8B8F8"/>
<stop offset="0.1904" stop-color="#F8B2F8"/>
<stop offset="1" stop-color="#F89AF8"/>
</linearGradient>
<linearGradient id="paint6_linear_29347_2459" x1="527.248" y1="550.509" x2="585.037" y2="608.231" gradientUnits="userSpaceOnUse">
<stop stop-color="#386EF8"/>
<stop offset="0.6185" stop-color="#3840F8"/>
<stop offset="1" stop-color="#3828F8"/>
</linearGradient>
</defs>
</svg>
