<svg width="615" height="700" viewBox="0 0 615 700" fill="none" xmlns="http://www.w3.org/2000/svg">
<circle r="27.5" transform="matrix(-1 0 0 1 586.506 27.5)" fill="#764AF1"/>
<path d="M40.1119 87.6001L30.8143 78.4746L54.5749 54.714L30.8143 31.1255L40.1119 22L72.998 54.714L40.1119 87.6001Z" stroke="white" stroke-width="2" stroke-miterlimit="10"/>
<path opacity="0.9375" d="M73.3406 54.714L49.7521 31.1255L58.8775 22L91.7637 54.714L58.8775 87.6001L49.7521 78.4746L73.3406 54.714Z" stroke="white" stroke-width="2" stroke-miterlimit="10"/>
<path opacity="0.875" d="M92.28 54.714L68.5193 31.1255L77.817 22L110.703 54.714L77.817 87.6001L68.5193 78.4746L92.28 54.714Z" stroke="white" stroke-width="2" stroke-miterlimit="10"/>
<path opacity="0.8125" d="M111.224 54.714L87.463 31.1255L96.7607 22L129.475 54.714L96.7607 87.6001L87.463 78.4746L111.224 54.714Z" stroke="white" stroke-width="2" stroke-miterlimit="10"/>
<path opacity="0.75" d="M129.991 54.714L106.402 31.1255L115.528 22L148.414 54.714L115.528 87.6001L106.402 78.4746L129.991 54.714Z" stroke="white" stroke-width="2" stroke-miterlimit="10"/>
<path opacity="0.6875" d="M148.925 54.714L125.164 31.1255L134.462 22L167.348 54.714L134.462 87.6001L125.164 78.4746L148.925 54.714Z" stroke="white" stroke-width="2" stroke-miterlimit="10"/>
<path opacity="0.625" d="M167.696 54.714L144.108 31.1255L153.233 22L186.119 54.714L153.233 87.6001L144.108 78.4746L167.696 54.714Z" stroke="white" stroke-width="2" stroke-miterlimit="10"/>
<path opacity="0.5625" d="M186.635 54.714L163.047 31.1255L172.172 22L205.059 54.714L172.172 87.6001L163.047 78.4746L186.635 54.714Z" stroke="white" stroke-width="2" stroke-miterlimit="10"/>
<path opacity="0.5" d="M205.571 54.714L181.811 31.1255L191.108 22L223.822 54.714L191.108 87.6001L181.811 78.4746L205.571 54.714Z" stroke="white" stroke-width="2" stroke-miterlimit="10"/>
<path opacity="0.4375" d="M224.339 54.714L200.75 31.1255L209.876 22L242.762 54.714L209.876 87.6001L200.75 78.4746L224.339 54.714Z" stroke="white" stroke-width="2" stroke-miterlimit="10"/>
<path opacity="0.375" d="M243.28 54.714L219.519 31.1255L228.817 22L261.703 54.714L228.817 87.6001L219.519 78.4746L243.28 54.714Z" stroke="white" stroke-width="2" stroke-miterlimit="10"/>
<path opacity="0.3125" d="M262.044 54.714L238.455 31.1255L247.581 22L280.467 54.714L247.581 87.6001L238.455 78.4746L262.044 54.714Z" stroke="white" stroke-width="2" stroke-miterlimit="10"/>
<path opacity="0.25" d="M280.983 54.714L257.395 31.1255L266.52 22L299.406 54.714L266.52 87.6001L257.395 78.4746L280.983 54.714Z" stroke="white" stroke-width="2" stroke-miterlimit="10"/>
<path opacity="0.1875" d="M299.923 54.714L276.162 31.1255L285.46 22L318.346 54.714L285.46 87.6001L276.162 78.4746L299.923 54.714Z" stroke="white" stroke-width="2" stroke-miterlimit="10"/>
<path opacity="0.125" d="M318.694 54.714L295.106 31.1255L304.231 22L337.117 54.714L304.231 87.6001L295.106 78.4746L318.694 54.714Z" stroke="white" stroke-width="2" stroke-miterlimit="10"/>
<path opacity="0.0625" d="M337.628 54.714L313.867 31.1255L323.165 22L356.051 54.714L323.165 87.6001L313.867 78.4746L337.628 54.714Z" stroke="white" stroke-width="2" stroke-miterlimit="10"/>
<path d="M119.124 557.948C91.7823 557.948 69.6172 580.139 69.6172 607.513L69.6172 590.542L69.6172 584.405L69.6172 532.389C83.8208 522.996 100.828 517.532 119.124 517.532C168.762 517.532 209.018 557.835 209.018 607.531L168.631 607.531C168.631 580.139 146.466 557.948 119.124 557.948Z" fill="#764AF1"/>
<path d="M104.305 607.512L69.6367 607.512C69.6367 580.138 91.802 557.947 119.125 557.947C146.449 557.947 168.633 580.138 168.633 607.512L145.926 607.512L145.926 565.843L104.305 607.512Z" fill="url(#paint0_linear_29350_2461)"/>
<path d="M104.305 607.512L69.6367 607.512C69.6367 580.138 91.802 557.947 119.125 557.947C146.449 557.947 168.633 580.138 168.633 607.512L145.926 607.512L145.926 565.843L104.305 607.512Z" fill="#9772FB"/>
<path d="M69.6356 607.512L69.6356 642.221L37.21 674.684L69.6356 674.684L69.6356 700L6.99737e-06 700L0 607.512L29.2298 607.512L69.6356 607.512Z" fill="#764AF1"/>
<path d="M69.6367 642.221L104.305 607.512L145.926 607.512L145.926 640.35C127.517 643.306 112.678 656.946 107.968 674.703L69.6367 674.703L69.6367 642.221Z" fill="#F2F2F2"/>
<path d="M145.926 565.843L145.926 607.512L104.305 607.512L145.926 565.843Z" fill="url(#paint1_linear_29350_2461)"/>
<path d="M145.926 565.843L145.926 607.512L104.305 607.512L145.926 565.843Z" fill="url(#paint2_linear_29350_2461)"/>
<path d="M145.926 565.843L145.926 607.512L104.305 607.512L145.926 565.843Z" fill="#F2F2F2"/>
<path d="M69.637 642.221L69.637 674.684L37.2109 674.684L69.637 642.221Z" fill="url(#paint3_linear_29350_2461)"/>
<path d="M69.637 642.221L69.637 674.684L37.2109 674.684L69.637 642.221Z" fill="#FFC44E"/>
<path d="M145.926 640.331C148.374 639.938 150.878 639.732 153.42 639.732L179.099 639.732L179.099 699.981L106.398 699.981L106.398 686.828C106.398 682.636 106.94 678.557 107.987 674.684L145.945 674.684L145.945 640.331L145.926 640.331Z" fill="#F32424"/>
<path d="M145.923 640.331L145.923 674.684L107.965 674.684C112.693 656.928 127.533 643.287 145.923 640.331Z" fill="url(#paint4_linear_29350_2461)"/>
<path d="M145.923 640.331L145.923 674.684L107.965 674.684C112.693 656.928 127.533 643.287 145.923 640.331Z" fill="#FFC44E"/>
<path d="M39.2167 607.561L0.031257 607.561L0.0312552 584.447L17.447 584.447L17.447 561.332L34.8628 561.332L34.8628 538.236L52.2785 538.236L52.2785 515.122L69.6943 515.122L69.6943 532.458C51.3345 548.559 39.2167 576.181 39.2167 607.561Z" fill="#F32424"/>
<path d="M69.637 590.523L69.637 607.494L29.2305 607.494C29.2305 576.097 45.2847 548.461 69.6183 532.351L69.6183 584.367L69.6183 590.523L69.637 590.523Z" fill="url(#paint5_linear_29350_2461)"/>
<path d="M69.637 590.523L69.637 607.494L29.2305 607.494C29.2305 576.097 45.2847 548.461 69.6183 532.351L69.6183 584.367L69.6183 590.523L69.637 590.523Z" fill="url(#paint6_linear_29350_2461)"/>
<path d="M1.91391e-06 699.981L0 674.684L37.1919 674.684L37.1919 699.981L1.91391e-06 699.981Z" fill="#FFC44E"/>
<path d="M2.62738e-06 642.239L0 607.512L69.6169 607.512L69.6169 642.239L2.62738e-06 642.239Z" fill="#9772FB"/>
<defs>
<linearGradient id="paint0_linear_29350_2461" x1="119.134" y1="517.507" x2="119.134" y2="607.507" gradientUnits="userSpaceOnUse">
<stop stop-color="#F8B8F8"/>
<stop offset="0.1904" stop-color="#F8B2F8"/>
<stop offset="1" stop-color="#F89AF8"/>
</linearGradient>
<linearGradient id="paint1_linear_29350_2461" x1="125.124" y1="517.507" x2="125.124" y2="607.507" gradientUnits="userSpaceOnUse">
<stop stop-color="#F8B8F8"/>
<stop offset="0.1904" stop-color="#F8B2F8"/>
<stop offset="1" stop-color="#F89AF8"/>
</linearGradient>
<linearGradient id="paint2_linear_29350_2461" x1="125.124" y1="557.948" x2="125.124" y2="607.507" gradientUnits="userSpaceOnUse">
<stop stop-color="#F84818"/>
<stop offset="0.0549913" stop-color="#F84B24"/>
<stop offset="0.3877" stop-color="#FB5966"/>
<stop offset="0.6673" stop-color="#FD6396"/>
<stop offset="0.8798" stop-color="#FF6AB4"/>
<stop offset="1" stop-color="#FF6CBF"/>
</linearGradient>
<linearGradient id="paint3_linear_29350_2461" x1="53.4199" y1="607.507" x2="53.4199" y2="699.992" gradientUnits="userSpaceOnUse">
<stop stop-color="#69FFFF"/>
<stop offset="0.974" stop-color="#2DCCF7"/>
<stop offset="1" stop-color="#2BCBF7"/>
</linearGradient>
<linearGradient id="paint4_linear_29350_2461" x1="126.952" y1="565.838" x2="126.952" y2="674.693" gradientUnits="userSpaceOnUse">
<stop stop-color="#69FFFF"/>
<stop offset="0.974" stop-color="#2DCCF7"/>
<stop offset="1" stop-color="#2BCBF7"/>
</linearGradient>
<linearGradient id="paint5_linear_29350_2461" x1="49.4366" y1="517.508" x2="49.4366" y2="607.507" gradientUnits="userSpaceOnUse">
<stop stop-color="#F8B8F8"/>
<stop offset="0.1904" stop-color="#F8B2F8"/>
<stop offset="1" stop-color="#F89AF8"/>
</linearGradient>
<linearGradient id="paint6_linear_29350_2461" x1="87.7516" y1="550.509" x2="29.963" y2="608.231" gradientUnits="userSpaceOnUse">
<stop stop-color="#386EF8"/>
<stop offset="0.6185" stop-color="#3840F8"/>
<stop offset="1" stop-color="#3828F8"/>
</linearGradient>
</defs>
</svg>
