<svg width="616" height="700" viewBox="0 0 616 700" fill="none" xmlns="http://www.w3.org/2000/svg">
<circle cx="28.4961" cy="27.5" r="27.5" fill="#764AF1"/>
<path d="M578.788 68.4999L584.188 63.1999L570.387 49.3999L584.188 35.6999L578.788 30.3999L559.688 49.3999L578.788 68.4999Z" stroke="#F32424" stroke-width="2" stroke-miterlimit="10"/>
<path opacity="0.9375" d="M559.489 49.3999L573.189 35.6999L567.889 30.3999L548.789 49.3999L567.889 68.4999L573.189 63.1999L559.489 49.3999Z" stroke="#F32424" stroke-width="2" stroke-miterlimit="10"/>
<path opacity="0.875" d="M548.489 49.3999L562.289 35.6999L556.889 30.3999L537.789 49.3999L556.889 68.4999L562.289 63.1999L548.489 49.3999Z" stroke="#F32424" stroke-width="2" stroke-miterlimit="10"/>
<path opacity="0.8125" d="M537.487 49.3999L551.287 35.6999L545.887 30.3999L526.887 49.3999L545.887 68.4999L551.287 63.1999L537.487 49.3999Z" stroke="#F32424" stroke-width="2" stroke-miterlimit="10"/>
<path opacity="0.75" d="M526.587 49.3999L540.287 35.6999L534.987 30.3999L515.887 49.3999L534.987 68.4999L540.287 63.1999L526.587 49.3999Z" stroke="#F32424" stroke-width="2" stroke-miterlimit="10"/>
<path opacity="0.6875" d="M515.591 49.3999L529.391 35.6999L523.991 30.3999L504.891 49.3999L523.991 68.4999L529.391 63.1999L515.591 49.3999Z" stroke="#F32424" stroke-width="2" stroke-miterlimit="10"/>
<path opacity="0.625" d="M504.688 49.3999L518.388 35.6999L513.088 30.3999L493.988 49.3999L513.088 68.4999L518.388 63.1999L504.688 49.3999Z" stroke="#F32424" stroke-width="2" stroke-miterlimit="10"/>
<path opacity="0.5625" d="M493.688 49.3999L507.388 35.6999L502.088 30.3999L482.988 49.3999L502.088 68.4999L507.388 63.1999L493.688 49.3999Z" stroke="#F32424" stroke-width="2" stroke-miterlimit="10"/>
<path opacity="0.5" d="M482.69 49.3999L496.49 35.6999L491.09 30.3999L472.09 49.3999L491.09 68.4999L496.49 63.1999L482.69 49.3999Z" stroke="#F32424" stroke-width="2" stroke-miterlimit="10"/>
<path opacity="0.4375" d="M471.79 49.3999L485.49 35.6999L480.19 30.3999L461.09 49.3999L480.19 68.4999L485.49 63.1999L471.79 49.3999Z" stroke="#F32424" stroke-width="2" stroke-miterlimit="10"/>
<path opacity="0.375" d="M460.79 49.3999L474.59 35.6999L469.19 30.3999L450.09 49.3999L469.19 68.4999L474.59 63.1999L460.79 49.3999Z" stroke="#F32424" stroke-width="2" stroke-miterlimit="10"/>
<path opacity="0.3125" d="M449.891 49.3999L463.591 35.6999L458.291 30.3999L439.191 49.3999L458.291 68.4999L463.591 63.1999L449.891 49.3999Z" stroke="#F32424" stroke-width="2" stroke-miterlimit="10"/>
<path opacity="0.25" d="M438.891 49.3999L452.591 35.6999L447.291 30.3999L428.191 49.3999L447.291 68.4999L452.591 63.1999L438.891 49.3999Z" stroke="#F32424" stroke-width="2" stroke-miterlimit="10"/>
<path opacity="0.1875" d="M427.891 49.3999L441.691 35.6999L436.291 30.3999L417.191 49.3999L436.291 68.4999L441.691 63.1999L427.891 49.3999Z" stroke="#F32424" stroke-width="2" stroke-miterlimit="10"/>
<path opacity="0.125" d="M416.989 49.3999L430.689 35.6999L425.389 30.3999L406.289 49.3999L425.389 68.4999L430.689 63.1999L416.989 49.3999Z" stroke="#F32424" stroke-width="2" stroke-miterlimit="10"/>
<path opacity="0.0625" d="M405.993 49.3999L419.793 35.6999L414.393 30.3999L395.293 49.3999L414.393 68.4999L419.793 63.1999L405.993 49.3999Z" stroke="#F32424" stroke-width="2" stroke-miterlimit="10"/>
<path d="M495.878 557.948C523.22 557.948 545.385 580.139 545.385 607.513L545.385 590.542L545.385 584.405L545.385 532.389C531.181 522.996 514.174 517.532 495.878 517.532C446.24 517.532 405.984 557.835 405.984 607.531L446.371 607.531C446.371 580.139 468.536 557.948 495.878 557.948Z" fill="#764AF1"/>
<path d="M510.697 607.512L545.365 607.512C545.365 580.138 523.2 557.947 495.876 557.947C468.553 557.947 446.369 580.138 446.369 607.512L469.076 607.512L469.076 565.843L510.697 607.512Z" fill="url(#paint0_linear_29349_2460)"/>
<path d="M510.697 607.512L545.365 607.512C545.365 580.138 523.2 557.947 495.876 557.947C468.553 557.947 446.369 580.138 446.369 607.512L469.076 607.512L469.076 565.843L510.697 607.512Z" fill="#9772FB"/>
<path d="M545.366 607.512L545.366 642.221L577.792 674.684L545.366 674.684L545.366 700L615.002 700L615.002 607.512L585.772 607.512L545.366 607.512Z" fill="#764AF1"/>
<path d="M545.365 642.221L510.697 607.512L469.076 607.512L469.076 640.35C487.485 643.306 502.324 656.946 507.034 674.703L545.365 674.703L545.365 642.221Z" fill="#F2F2F2"/>
<path d="M469.076 565.843L469.076 607.512L510.697 607.512L469.076 565.843Z" fill="url(#paint1_linear_29349_2460)"/>
<path d="M469.076 565.843L469.076 607.512L510.697 607.512L469.076 565.843Z" fill="url(#paint2_linear_29349_2460)"/>
<path d="M469.076 565.843L469.076 607.512L510.697 607.512L469.076 565.843Z" fill="#F2F2F2"/>
<path d="M545.365 642.221L545.365 674.684L577.791 674.684L545.365 642.221Z" fill="url(#paint3_linear_29349_2460)"/>
<path d="M545.365 642.221L545.365 674.684L577.791 674.684L545.365 642.221Z" fill="#FFC44E"/>
<path d="M469.076 640.331C466.628 639.938 464.123 639.732 461.582 639.732L435.903 639.732L435.903 699.981L508.604 699.981L508.604 686.828C508.604 682.636 508.062 678.557 507.015 674.684L469.057 674.684L469.057 640.331L469.076 640.331Z" fill="#F32424"/>
<path d="M469.079 640.331L469.079 674.684L507.037 674.684C502.309 656.928 487.469 643.287 469.079 640.331Z" fill="url(#paint4_linear_29349_2460)"/>
<path d="M469.079 640.331L469.079 674.684L507.037 674.684C502.309 656.928 487.469 643.287 469.079 640.331Z" fill="#FFC44E"/>
<path d="M575.785 607.561L614.971 607.561L614.971 584.447L597.555 584.447L597.555 561.332L580.139 561.332L580.139 538.236L562.723 538.236L562.723 515.122L545.308 515.122L545.308 532.458C563.667 548.559 575.785 576.181 575.785 607.561Z" fill="#F32424"/>
<path d="M545.365 590.523L545.365 607.494L585.771 607.494C585.771 576.097 569.717 548.461 545.384 532.351L545.384 584.367L545.384 590.523L545.365 590.523Z" fill="url(#paint5_linear_29349_2460)"/>
<path d="M545.365 590.523L545.365 607.494L585.771 607.494C585.771 576.097 569.717 548.461 545.384 532.351L545.384 584.367L545.384 590.523L545.365 590.523Z" fill="url(#paint6_linear_29349_2460)"/>
<path d="M615.002 699.981L615.002 674.684L577.81 674.684L577.81 699.981L615.002 699.981Z" fill="#FFC44E"/>
<path d="M615.002 642.239L615.002 607.512L545.385 607.512L545.385 642.239L615.002 642.239Z" fill="#9772FB"/>
<defs>
<linearGradient id="paint0_linear_29349_2460" x1="495.868" y1="517.507" x2="495.868" y2="607.507" gradientUnits="userSpaceOnUse">
<stop stop-color="#F8B8F8"/>
<stop offset="0.1904" stop-color="#F8B2F8"/>
<stop offset="1" stop-color="#F89AF8"/>
</linearGradient>
<linearGradient id="paint1_linear_29349_2460" x1="489.878" y1="517.507" x2="489.878" y2="607.507" gradientUnits="userSpaceOnUse">
<stop stop-color="#F8B8F8"/>
<stop offset="0.1904" stop-color="#F8B2F8"/>
<stop offset="1" stop-color="#F89AF8"/>
</linearGradient>
<linearGradient id="paint2_linear_29349_2460" x1="489.878" y1="557.948" x2="489.878" y2="607.507" gradientUnits="userSpaceOnUse">
<stop stop-color="#F84818"/>
<stop offset="0.0549913" stop-color="#F84B24"/>
<stop offset="0.3877" stop-color="#FB5966"/>
<stop offset="0.6673" stop-color="#FD6396"/>
<stop offset="0.8798" stop-color="#FF6AB4"/>
<stop offset="1" stop-color="#FF6CBF"/>
</linearGradient>
<linearGradient id="paint3_linear_29349_2460" x1="561.582" y1="607.507" x2="561.582" y2="699.992" gradientUnits="userSpaceOnUse">
<stop stop-color="#69FFFF"/>
<stop offset="0.974" stop-color="#2DCCF7"/>
<stop offset="1" stop-color="#2BCBF7"/>
</linearGradient>
<linearGradient id="paint4_linear_29349_2460" x1="488.05" y1="565.838" x2="488.05" y2="674.693" gradientUnits="userSpaceOnUse">
<stop stop-color="#69FFFF"/>
<stop offset="0.974" stop-color="#2DCCF7"/>
<stop offset="1" stop-color="#2BCBF7"/>
</linearGradient>
<linearGradient id="paint5_linear_29349_2460" x1="565.565" y1="517.508" x2="565.565" y2="607.507" gradientUnits="userSpaceOnUse">
<stop stop-color="#F8B8F8"/>
<stop offset="0.1904" stop-color="#F8B2F8"/>
<stop offset="1" stop-color="#F89AF8"/>
</linearGradient>
<linearGradient id="paint6_linear_29349_2460" x1="527.25" y1="550.509" x2="585.039" y2="608.231" gradientUnits="userSpaceOnUse">
<stop stop-color="#386EF8"/>
<stop offset="0.6185" stop-color="#3840F8"/>
<stop offset="1" stop-color="#3828F8"/>
</linearGradient>
</defs>
</svg>
