<svg width="615" height="701" viewBox="0 0 615 701" fill="none" xmlns="http://www.w3.org/2000/svg">
<circle r="27.5" transform="matrix(-1 0 0 1 586.508 27.6921)" fill="#764AF1"/>
<path d="M36.2164 68.692L30.8164 63.392L44.6164 49.592L30.8164 35.892L36.2164 30.592L55.3164 49.592L36.2164 68.692Z" stroke="#F32424" stroke-width="2" stroke-miterlimit="10"/>
<path opacity="0.9375" d="M55.5148 49.592L41.8148 35.892L47.1149 30.592L66.2148 49.592L47.1149 68.692L41.8148 63.392L55.5148 49.592Z" stroke="#F32424" stroke-width="2" stroke-miterlimit="10"/>
<path opacity="0.875" d="M66.5148 49.592L52.7148 35.892L58.1149 30.592L77.2148 49.592L58.1149 68.692L52.7148 63.392L66.5148 49.592Z" stroke="#F32424" stroke-width="2" stroke-miterlimit="10"/>
<path opacity="0.8125" d="M77.5172 49.592L63.7172 35.892L69.1172 30.592L88.1172 49.592L69.1172 68.692L63.7172 63.392L77.5172 49.592Z" stroke="#F32424" stroke-width="2" stroke-miterlimit="10"/>
<path opacity="0.75" d="M88.4172 49.592L74.7172 35.892L80.0172 30.592L99.1172 49.592L80.0172 68.692L74.7172 63.392L88.4172 49.592Z" stroke="#F32424" stroke-width="2" stroke-miterlimit="10"/>
<path opacity="0.6875" d="M99.4133 49.592L85.6133 35.892L91.0133 30.592L110.113 49.592L91.0133 68.692L85.6133 63.392L99.4133 49.592Z" stroke="#F32424" stroke-width="2" stroke-miterlimit="10"/>
<path opacity="0.625" d="M110.316 49.592L96.6156 35.892L101.916 30.592L121.016 49.592L101.916 68.692L96.6156 63.392L110.316 49.592Z" stroke="#F32424" stroke-width="2" stroke-miterlimit="10"/>
<path opacity="0.5625" d="M121.316 49.592L107.616 35.892L112.916 30.592L132.016 49.592L112.916 68.692L107.616 63.392L121.316 49.592Z" stroke="#F32424" stroke-width="2" stroke-miterlimit="10"/>
<path opacity="0.5" d="M132.314 49.592L118.514 35.892L123.914 30.592L142.914 49.592L123.914 68.692L118.514 63.392L132.314 49.592Z" stroke="#F32424" stroke-width="2" stroke-miterlimit="10"/>
<path opacity="0.4375" d="M143.214 49.592L129.514 35.892L134.814 30.592L153.914 49.592L134.814 68.692L129.514 63.392L143.214 49.592Z" stroke="#F32424" stroke-width="2" stroke-miterlimit="10"/>
<path opacity="0.375" d="M154.214 49.592L140.414 35.892L145.814 30.592L164.914 49.592L145.814 68.692L140.414 63.392L154.214 49.592Z" stroke="#F32424" stroke-width="2" stroke-miterlimit="10"/>
<path opacity="0.3125" d="M165.112 49.592L151.413 35.892L156.712 30.592L175.812 49.592L156.712 68.692L151.413 63.392L165.112 49.592Z" stroke="#F32424" stroke-width="2" stroke-miterlimit="10"/>
<path opacity="0.25" d="M176.112 49.592L162.413 35.892L167.713 30.592L186.812 49.592L167.713 68.692L162.413 63.392L176.112 49.592Z" stroke="#F32424" stroke-width="2" stroke-miterlimit="10"/>
<path opacity="0.1875" d="M187.112 49.592L173.312 35.892L178.713 30.592L197.812 49.592L178.713 68.692L173.312 63.392L187.112 49.592Z" stroke="#F32424" stroke-width="2" stroke-miterlimit="10"/>
<path opacity="0.125" d="M198.015 49.592L184.315 35.892L189.615 30.592L208.715 49.592L189.615 68.692L184.315 63.392L198.015 49.592Z" stroke="#F32424" stroke-width="2" stroke-miterlimit="10"/>
<path opacity="0.0625" d="M209.011 49.592L195.211 35.892L200.611 30.592L219.711 49.592L200.611 68.692L195.211 63.392L209.011 49.592Z" stroke="#F32424" stroke-width="2" stroke-miterlimit="10"/>
<path d="M119.124 558.14C91.7823 558.14 69.6172 580.331 69.6172 607.705L69.6172 590.734L69.6172 584.597L69.6172 532.581C83.8208 523.188 100.828 517.724 119.124 517.724C168.762 517.724 209.018 558.027 209.018 607.723L168.631 607.723C168.631 580.331 146.466 558.14 119.124 558.14Z" fill="#764AF1"/>
<path d="M104.305 607.704L69.6367 607.704C69.6367 580.33 91.802 558.139 119.125 558.139C146.449 558.139 168.633 580.33 168.633 607.704L145.926 607.704L145.926 566.035L104.305 607.704Z" fill="url(#paint0_linear_29350_2462)"/>
<path d="M104.305 607.704L69.6367 607.704C69.6367 580.33 91.802 558.139 119.125 558.139C146.449 558.139 168.633 580.33 168.633 607.704L145.926 607.704L145.926 566.035L104.305 607.704Z" fill="#9772FB"/>
<path d="M69.6356 607.704L69.6356 642.413L37.21 674.876L69.6356 674.876L69.6356 700.192L6.89994e-06 700.192L0 607.704L29.2298 607.704L69.6356 607.704Z" fill="#764AF1"/>
<path d="M69.6367 642.413L104.305 607.704L145.926 607.704L145.926 640.542C127.517 643.498 112.678 657.138 107.968 674.895L69.6367 674.895L69.6367 642.413Z" fill="#F2F2F2"/>
<path d="M145.926 566.035L145.926 607.704L104.305 607.704L145.926 566.035Z" fill="url(#paint1_linear_29350_2462)"/>
<path d="M145.926 566.035L145.926 607.704L104.305 607.704L145.926 566.035Z" fill="url(#paint2_linear_29350_2462)"/>
<path d="M145.926 566.035L145.926 607.704L104.305 607.704L145.926 566.035Z" fill="#F2F2F2"/>
<path d="M69.637 642.413L69.637 674.877L37.2109 674.877L69.637 642.413Z" fill="url(#paint3_linear_29350_2462)"/>
<path d="M69.637 642.413L69.637 674.877L37.2109 674.877L69.637 642.413Z" fill="#FFC44E"/>
<path d="M145.926 640.523C148.374 640.13 150.878 639.925 153.42 639.925L179.099 639.925L179.099 700.173L106.398 700.173L106.398 687.02C106.398 682.828 106.94 678.75 107.987 674.876L145.945 674.876L145.945 640.523L145.926 640.523Z" fill="#F32424"/>
<path d="M145.923 640.523L145.923 674.876L107.965 674.876C112.693 657.12 127.533 643.48 145.923 640.523Z" fill="url(#paint4_linear_29350_2462)"/>
<path d="M145.923 640.523L145.923 674.876L107.965 674.876C112.693 657.12 127.533 643.48 145.923 640.523Z" fill="#FFC44E"/>
<path d="M39.2167 607.753L0.0312569 607.753L0.0312552 584.639L17.447 584.639L17.447 561.524L34.8628 561.524L34.8628 538.429L52.2785 538.429L52.2785 515.314L69.6943 515.314L69.6943 532.65C51.3345 548.752 39.2167 576.373 39.2167 607.753Z" fill="#F32424"/>
<path d="M69.637 590.715L69.637 607.686L29.2305 607.686C29.2305 576.289 45.2847 548.653 69.6183 532.543L69.6183 584.559L69.6183 590.715L69.637 590.715Z" fill="url(#paint5_linear_29350_2462)"/>
<path d="M69.637 590.715L69.637 607.686L29.2305 607.686C29.2305 576.289 45.2847 548.653 69.6183 532.543L69.6183 584.559L69.6183 590.715L69.637 590.715Z" fill="url(#paint6_linear_29350_2462)"/>
<path d="M1.88726e-06 700.173L0 674.876L37.1919 674.876L37.1919 700.173L1.88726e-06 700.173Z" fill="#FFC44E"/>
<path d="M2.59079e-06 642.432L0 607.704L69.6169 607.704L69.6169 642.432L2.59079e-06 642.432Z" fill="#9772FB"/>
<defs>
<linearGradient id="paint0_linear_29350_2462" x1="119.134" y1="517.7" x2="119.134" y2="607.699" gradientUnits="userSpaceOnUse">
<stop stop-color="#F8B8F8"/>
<stop offset="0.1904" stop-color="#F8B2F8"/>
<stop offset="1" stop-color="#F89AF8"/>
</linearGradient>
<linearGradient id="paint1_linear_29350_2462" x1="125.124" y1="517.7" x2="125.124" y2="607.699" gradientUnits="userSpaceOnUse">
<stop stop-color="#F8B8F8"/>
<stop offset="0.1904" stop-color="#F8B2F8"/>
<stop offset="1" stop-color="#F89AF8"/>
</linearGradient>
<linearGradient id="paint2_linear_29350_2462" x1="125.124" y1="558.14" x2="125.124" y2="607.699" gradientUnits="userSpaceOnUse">
<stop stop-color="#F84818"/>
<stop offset="0.0549913" stop-color="#F84B24"/>
<stop offset="0.3877" stop-color="#FB5966"/>
<stop offset="0.6673" stop-color="#FD6396"/>
<stop offset="0.8798" stop-color="#FF6AB4"/>
<stop offset="1" stop-color="#FF6CBF"/>
</linearGradient>
<linearGradient id="paint3_linear_29350_2462" x1="53.4199" y1="607.699" x2="53.4199" y2="700.184" gradientUnits="userSpaceOnUse">
<stop stop-color="#69FFFF"/>
<stop offset="0.974" stop-color="#2DCCF7"/>
<stop offset="1" stop-color="#2BCBF7"/>
</linearGradient>
<linearGradient id="paint4_linear_29350_2462" x1="126.952" y1="566.03" x2="126.952" y2="674.885" gradientUnits="userSpaceOnUse">
<stop stop-color="#69FFFF"/>
<stop offset="0.974" stop-color="#2DCCF7"/>
<stop offset="1" stop-color="#2BCBF7"/>
</linearGradient>
<linearGradient id="paint5_linear_29350_2462" x1="49.4366" y1="517.7" x2="49.4366" y2="607.699" gradientUnits="userSpaceOnUse">
<stop stop-color="#F8B8F8"/>
<stop offset="0.1904" stop-color="#F8B2F8"/>
<stop offset="1" stop-color="#F89AF8"/>
</linearGradient>
<linearGradient id="paint6_linear_29350_2462" x1="87.7516" y1="550.701" x2="29.963" y2="608.424" gradientUnits="userSpaceOnUse">
<stop stop-color="#386EF8"/>
<stop offset="0.6185" stop-color="#3840F8"/>
<stop offset="1" stop-color="#3828F8"/>
</linearGradient>
</defs>
</svg>
