<svg width="37" height="29" viewBox="0 0 37 29" fill="none" xmlns="http://www.w3.org/2000/svg">
<path d="M33.4058 2.26828C35.4678 4.53656 36.7051 7.01105 36.7051 11.1352C36.7051 18.3525 31.5499 24.7449 24.3326 28.0442L22.4768 25.3635C29.2816 21.6518 30.7251 16.909 31.1375 13.8159C30.1064 14.4345 28.663 14.6407 27.2195 14.4345C23.5078 14.0221 20.6209 11.1352 20.6209 7.21726C20.6209 5.36139 21.4457 3.50553 22.683 2.06208C24.1264 0.618623 25.7761 9.55443e-07 27.8382 7.75171e-07C30.1064 5.76871e-07 32.1685 1.03103 33.4058 2.26828ZM12.785 2.26828C14.8471 4.53656 16.0843 7.01105 16.0843 11.1352C16.0843 18.3525 10.9291 24.7449 3.71188 28.0442L1.85601 25.3635C8.66086 21.6518 10.1043 16.909 10.5167 13.8159C9.48569 14.4345 8.04224 14.6407 6.59878 14.4345C2.88705 14.0221 0.00014348 11.1352 0.000143138 7.21726C0.000142976 5.3614 0.824976 3.50553 2.06222 2.06208C3.29946 0.618625 5.15533 2.75817e-06 7.21741 2.57789e-06C9.48569 2.37959e-06 11.5478 1.03104 12.785 2.26828Z" fill="#764AF1"/>
</svg>
